<svg width="69" xmlns="http://www.w3.org/2000/svg" height="69" id="screenshot-8ef23f37-a928-80e0-8006-54fe34666c3a" viewBox="0 0 69 69" xmlns:xlink="http://www.w3.org/1999/xlink" fill="none" version="1.1"><g id="shape-8ef23f37-a928-80e0-8006-54fe34666c3a" rx="0" ry="0"><g id="shape-efe99920-a82e-80f2-8006-53d77a789eff"><g class="fills" id="fills-efe99920-a82e-80f2-8006-53d77a789eff"><path d="M55.000,1.000L67.500,13.500L68.000,5.500L65.000,1.500L55.000,1.000Z" style="fill: rgb(48, 89, 212); fill-opacity: 1;"/></g></g><g id="shape-efe99920-a82e-80f2-8006-53d77a789f00"><g class="fills" id="fills-efe99920-a82e-80f2-8006-53d77a789f00"><rect rx="6" ry="6" x="0" y="0" transform="matrix(1.000000, 0.000000, 0.000000, 1.000000, 0.000000, 0.000000)" width="68.99999999999994" height="69"/></g><g id="strokes-37d6638f-5f03-80ab-8006-550283e1bc82-efe99920-a82e-80f2-8006-53d77a789f00" class="strokes"><g class="inner-stroke-shape" transform="matrix(1.000000, 0.000000, 0.000000, 1.000000, 0.000000, 0.000000)"><defs><clipPath id="inner-stroke-render-3-efe99920-a82e-80f2-8006-53d77a789f00-0"><use href="#stroke-shape-render-3-efe99920-a82e-80f2-8006-53d77a789f00-0"/></clipPath><rect rx="6" ry="6" x="0" y="0" width="68.99999999999994" height="69" id="stroke-shape-render-3-efe99920-a82e-80f2-8006-53d77a789f00-0" style="fill: none; stroke-width: 4; stroke: rgb(0, 0, 0); stroke-opacity: 1;"/></defs><use href="#stroke-shape-render-3-efe99920-a82e-80f2-8006-53d77a789f00-0" clip-path="url('#inner-stroke-render-3-efe99920-a82e-80f2-8006-53d77a789f00-0')"/></g></g></g><g id="shape-efe99920-a82e-80f2-8006-53d77a789f08"><g class="fills" id="fills-efe99920-a82e-80f2-8006-53d77a789f08"><path d="M54.000,1.000L68.000,15.000M42.000,-5.000"/></g><g id="strokes-37d6638f-5f03-80ab-8006-550283e25c57-efe99920-a82e-80f2-8006-53d77a789f08" class="strokes"><g class="stroke-shape"><path d="M54.000,1.000L68.000,15.000M42.000,-5.000" style="fill: none; stroke-width: 2; stroke: rgb(0, 0, 0); stroke-opacity: 1;"/></g></g></g><g id="shape-efe99920-a82e-80f2-8006-53d8a389f33b" rx="0" ry="0"><g id="shape-efe99920-a82e-80f2-8006-53d7f8de201d"><defs><pattern patternUnits="userSpaceOnUse" x="21" y="19" width="31" height="31" patternTransform="matrix(1.000000, 0.000000, 0.000000, 1.000000, 0.000000, 0.000000)" id="fill-0-render-6"><g><image id="fill-image-render-6-0" href="https://design.penpot.app/assets/by-file-media-id/d27e272d-6b22-8014-8006-53d7f8c93d7c" preserveAspectRatio="xMidYMid slice" width="31" height="31" opacity="1"/></g></pattern></defs><g class="fills" id="fills-efe99920-a82e-80f2-8006-53d7f8de201d"><path d="M21.000,19.000L52.000,19.000L52.000,50.000L45.356,50.000L21.000,50.000L21.000,19.000Z" fill="url(#fill-0-render-6)"/></g></g><g id="shape-efe99920-a82e-80f2-8006-53d83d0cb694"><g class="fills" id="fills-efe99920-a82e-80f2-8006-53d83d0cb694"><path d="M33.311,26.638C30.333,25.190,28.171,26.201,28.653,25.208C29.136,24.215,32.857,23.286,35.835,24.733C38.813,26.181,40.425,29.947,39.445,30.455C35.500,32.500,36.289,28.086,33.311,26.638Z" style="fill: rgb(48, 89, 212); fill-opacity: 1;"/></g></g></g></g></svg>