<?xml version="1.0" encoding="UTF-8" standalone="no"?>
<!DOCTYPE svg PUBLIC "-//W3C//DTD SVG 1.1//EN" "http://www.w3.org/Graphics/SVG/1.1/DTD/svg11.dtd">
<svg width="100%" height="100%" viewBox="0 0 303 294" version="1.1" xmlns="http://www.w3.org/2000/svg" xmlns:xlink="http://www.w3.org/1999/xlink" xml:space="preserve" xmlns:serif="http://www.serif.com/" style="fill-rule:evenodd;clip-rule:evenodd;stroke-linecap:round;stroke-miterlimit:1.5;">
    <g transform="matrix(1,0,0,1,-109.845,-336.73)">
        <g transform="matrix(1,0,0,1,-2737.49,0)">
            <g id="Logo" transform="matrix(1,0,0,1,1.65601,161.983)">
                <g transform="matrix(1.06452,0,0,1.06452,2720.76,-20.7471)">
                    <circle cx="259.259" cy="321.571" r="137.925" style="fill:white;"/>
                </g>
                <g transform="matrix(0.866025,-0.5,0.5,0.866025,2393.01,178.927)">
                    <path d="M451.528,287.476L570.974,356.438L570.974,494.363L451.528,563.325L332.082,494.363L332.082,356.438L451.528,287.476Z" style="fill:none;"/>
                </g>
                <g transform="matrix(0.866025,-0.5,0.5,0.866025,1903.18,218.564)">
                    <path d="M895.558,635.993L776.112,567.031L895.558,498.069L1015,567.031L895.558,635.993Z" style="fill:rgb(227,101,91);"/>
                </g>
                <g transform="matrix(0.866025,-0.5,0.5,0.866025,1903.18,218.564)">
                    <path d="M895.558,635.993L776.112,567.031L776.112,704.955L895.558,773.918L895.558,635.993Z" style="fill:rgb(30,41,59);"/>
                </g>
                <g transform="matrix(0.866025,-0.5,0.5,0.866025,1903.18,218.564)">
                    <path d="M1015,567.031L895.558,635.993L895.558,773.918L1015,704.955L1015,567.031Z" style="fill:rgb(224,134,212);"/>
                </g>
                <g transform="matrix(0.866025,-0.5,0.5,0.866025,1903.18,218.564)">
                    <path d="M914.55,625.028C902.798,631.813 888.319,631.813 876.567,625.028C853.674,611.811 815.531,589.79 793.419,577.023C789.849,574.962 787.65,571.153 787.65,567.031C787.65,562.909 789.849,559.1 793.419,557.039C811.056,546.856 874.043,510.49 889.338,501.66C893.187,499.437 897.929,499.437 901.778,501.66C919.483,511.881 970.614,541.402 997.697,557.039C1001.27,559.1 1003.47,562.909 1003.47,567.031C1003.47,571.153 1001.27,574.962 997.697,577.023C975.585,589.79 937.443,611.811 914.55,625.028Z" style="fill:none;stroke:white;stroke-width:14.58px;"/>
                </g>
                <g transform="matrix(0.866025,-0.5,0.5,0.866025,1903.18,218.564)">
                    <path d="M895.558,655.195C895.558,643.313 889.219,632.333 878.929,626.392C856.821,613.628 817.86,591.134 794.772,577.804C790.923,575.582 786.181,575.582 782.332,577.804C778.483,580.026 776.112,584.133 776.112,588.577L776.112,687.369C776.112,698.252 781.918,708.307 791.342,713.748C813.171,726.351 853.315,749.528 876.898,763.144C880.747,765.367 885.489,765.367 889.338,763.144C893.187,760.922 895.558,756.815 895.558,752.371L895.558,655.195Z" style="fill:none;stroke:white;stroke-width:14.58px;stroke-linejoin:round;"/>
                </g>
                <g transform="matrix(0.866025,-0.5,0.5,0.866025,1903.18,218.564)">
                    <path d="M1015,588.577C1015,584.133 1012.63,580.026 1008.78,577.804C1004.94,575.582 1000.19,575.582 996.345,577.804C972.654,591.482 932.252,614.808 910.492,627.371C901.251,632.707 895.558,642.566 895.558,653.237L895.558,751.354C895.558,756.009 898.041,760.309 902.072,762.636C906.102,764.963 911.068,764.963 915.099,762.636C940.764,747.818 984.896,722.339 1004.77,710.863C1011.1,707.207 1015,700.452 1015,693.141L1015,588.577Z" style="fill:rgb(72,168,255);stroke:white;stroke-width:14.58px;"/>
                </g>
                <g transform="matrix(0.263851,-0.152335,0.152335,0.263851,2711.52,290.188)">
                    <g transform="matrix(0.139781,0,0,0.139781,912.031,604.462)">
                        <path d="M25.452,483.033C-147.591,753.618 -145.107,898.933 -65.978,934.089C8.981,967.392 152.916,901.947 282.413,750.052C283.863,830.997 217.385,945.838 176.584,1042.31C272.385,986.994 368.186,931.684 463.986,876.373C421.969,829.773 351.649,792.099 349.081,711.561C620.849,705.38 909.867,275.673 608.317,146.516C451.1,70.761 352.708,-2.141 315.743,-24.756C282.022,37.578 191.941,215.969 25.445,483.037L25.452,483.033Z" style="fill:white;"/>
                    </g>
                </g>
                <g transform="matrix(0.28448,-0.164245,0.164245,0.28448,2610.28,330.877)">
                    <g transform="matrix(1,0,0,1,-2737.49,0)">
                        <g>
                            <g transform="matrix(1,0,0,1,2856.65,42.5331)">
                                <path d="M686.812,541.738C703.324,551.272 716.673,570.752 716.673,585.141C716.673,599.527 703.327,603.597 686.812,594.062C670.299,584.528 656.95,565.048 656.95,550.659C656.95,536.273 670.297,532.203 686.812,541.738Z" style="fill:white;"/>
                            </g>
                            <g transform="matrix(1,0,0,1,2881.45,83.105)">
                                <path d="M721.736,621.249C738.248,630.782 751.597,650.263 751.597,664.651C751.597,679.038 738.251,683.107 721.736,673.572C705.223,664.039 691.874,644.558 691.874,630.17C691.874,615.783 705.22,611.714 721.736,621.249Z" style="fill:white;"/>
                            </g>
                        </g>
                    </g>
                </g>
                <g transform="matrix(1,0,0,1,2101.19,-314.422)">
                    <path d="M757.634,635.993L766.74,620.22L766.74,651.766L757.634,635.993Z" style="fill:white;"/>
                </g>
                <g transform="matrix(1,0,0,1,2101.19,-314.422)">
                    <path d="M964.521,516.547L974.2,533.312L944.536,516.547L964.521,516.547Z" style="fill:white;"/>
                </g>
                <g transform="matrix(1,0,0,1,2101.19,-314.422)">
                    <path d="M965.248,755.439L944.536,755.439L972.042,742.412L965.248,755.439Z" style="fill:white;"/>
                </g>
            </g>
        </g>
    </g>
</svg>
