<svg width="69" xmlns="http://www.w3.org/2000/svg" height="69" id="screenshot-8ef23f37-a928-80e0-8006-54fe3b36160d" viewBox="0 0 69 69" xmlns:xlink="http://www.w3.org/1999/xlink" fill="none" version="1.1"><g id="shape-8ef23f37-a928-80e0-8006-54fe3b36160d" rx="0" ry="0"><g id="shape-efe99920-a82e-80f2-8006-53d60c79df5b"><g class="fills" id="fills-efe99920-a82e-80f2-8006-53d60c79df5b"><rect rx="6" ry="6" x="0" y="0" transform="matrix(1.000000, 0.000000, 0.000000, 1.000000, 0.000000, 0.000000)" width="69" height="69" style="fill: rgb(255, 255, 255); fill-opacity: 1;"/></g><g id="strokes-b2c4bc66-6978-80ac-8006-5502ba068e2c-efe99920-a82e-80f2-8006-53d60c79df5b" class="strokes"><g class="inner-stroke-shape" transform="matrix(1.000000, 0.000000, 0.000000, 1.000000, 0.000000, 0.000000)"><defs><clipPath id="inner-stroke-render-2-efe99920-a82e-80f2-8006-53d60c79df5b-0"><use href="#stroke-shape-render-2-efe99920-a82e-80f2-8006-53d60c79df5b-0"/></clipPath><rect rx="6" ry="6" x="0" y="0" width="69" height="69" id="stroke-shape-render-2-efe99920-a82e-80f2-8006-53d60c79df5b-0" style="fill: none; stroke-width: 4; stroke: rgb(0, 0, 0); stroke-opacity: 1;"/></defs><use href="#stroke-shape-render-2-efe99920-a82e-80f2-8006-53d60c79df5b-0" clip-path="url('#inner-stroke-render-2-efe99920-a82e-80f2-8006-53d60c79df5b-0')"/></g></g></g><g id="shape-efe99920-a82e-80f2-8006-53d64d9ed7b3"><defs><pattern patternUnits="userSpaceOnUse" x="13" y="14" width="43" height="43" patternTransform="matrix(1.000000, 0.000000, 0.000000, 1.000000, 0.000000, 0.000000)" id="fill-0-render-3"><g><image id="fill-image-render-3-0" href="https://design.penpot.app/assets/by-file-media-id/fd8d4288-9979-819c-8006-53d64d9390d6" preserveAspectRatio="xMidYMid slice" width="43" height="43" opacity="1"/></g></pattern></defs><g class="fills" id="fills-efe99920-a82e-80f2-8006-53d64d9ed7b3"><path d="M13.000,14.000L56.000,14.000L56.000,57.000L13.000,57.000L13.000,14.000Z" fill="url(#fill-0-render-3)"/></g></g><g id="shape-efe99920-a82e-80f2-8006-53d6fa5c0d48"><g class="fills" id="fills-efe99920-a82e-80f2-8006-53d6fa5c0d48"><ellipse cx="19.25" cy="42.75" rx="4.75" ry="4.75" transform="matrix(1.000000, 0.000000, 0.000000, 1.000000, 0.000000, 0.000000)" style="fill: rgb(227, 33, 53); fill-opacity: 1;"/></g></g><g id="shape-efe99920-a82e-80f2-8006-53d7122b4be0"><g class="fills" id="fills-efe99920-a82e-80f2-8006-53d7122b4be0"><ellipse cx="27.25" cy="42.75" rx="4.75" ry="4.75" transform="matrix(1.000000, 0.000000, 0.000000, 1.000000, 0.000000, 0.000000)" style="fill: rgb(227, 33, 53); fill-opacity: 1;"/></g></g><g id="shape-efe99920-a82e-80f2-8006-53d7234c040c"><g class="fills" id="fills-efe99920-a82e-80f2-8006-53d7234c040c"><path d="M15.000,45.000L23.500,56.000L31.500,45.000L15.000,45.000Z" style="fill: rgb(227, 33, 53); fill-opacity: 1;"/></g></g></g></svg>