<svg width="69" xmlns="http://www.w3.org/2000/svg" height="69" id="screenshot-8ef23f37-a928-80e0-8006-54fe361de235" viewBox="0 0 69 69" xmlns:xlink="http://www.w3.org/1999/xlink" fill="none" version="1.1"><g id="shape-8ef23f37-a928-80e0-8006-54fe361de235" rx="0" ry="0"><g id="shape-efe99920-a82e-80f2-8006-53d8fd9d86d0"><g class="fills" id="fills-efe99920-a82e-80f2-8006-53d8fd9d86d0"><path d="M33.327,47.768C33.327,47.768,26.452,47.285,27.832,23.294C27.832,23.294,20.308,32.360,23.500,35.000"/></g><g id="strokes-73f5e126-3ea0-802a-8006-5502a483ba70-efe99920-a82e-80f2-8006-53d8fd9d86d0" class="strokes"><g class="stroke-shape"><path d="M33.327,47.768C33.327,47.768,26.452,47.285,27.832,23.294C27.832,23.294,20.308,32.360,23.500,35.000" style="fill: none; stroke-width: 5; stroke: rgb(227, 33, 53); stroke-opacity: 1;"/></g></g></g><g id="shape-efe99920-a82e-80f2-8006-53d8fd9d86d1"><g class="fills" id="fills-efe99920-a82e-80f2-8006-53d8fd9d86d1"><ellipse cx="36.49980362118339" cy="44.499803621183446" rx="7.499999999999943" ry="7.5" transform="matrix(0.989624, 0.143683, -0.143683, 0.989624, 6.772618, -4.782674)" style="fill: rgb(227, 33, 53); fill-opacity: 1;"/></g></g><g id="shape-efe99920-a82e-80f2-8006-53d8e1e40d3f"><g class="fills" id="fills-efe99920-a82e-80f2-8006-53d8e1e40d3f"><path d="M35.327,46.768C35.327,46.768,28.452,46.285,29.832,22.294C29.832,22.294,22.808,30.860,26.000,33.500"/></g><g id="strokes-73f5e126-3ea0-802a-8006-5502a484ea01-efe99920-a82e-80f2-8006-53d8e1e40d3f" class="strokes"><g class="stroke-shape"><path d="M35.327,46.768C35.327,46.768,28.452,46.285,29.832,22.294C29.832,22.294,22.808,30.860,26.000,33.500" style="fill: none; stroke-width: 5; stroke: rgb(0, 0, 0); stroke-opacity: 1;"/></g></g></g><g id="shape-efe99920-a82e-80f2-8006-53d8e1e40d40"><g class="fills" id="fills-efe99920-a82e-80f2-8006-53d8e1e40d40"><ellipse cx="38.49980362118339" cy="43.499803621183446" rx="7.499999999999943" ry="7.5" transform="matrix(0.989624, 0.143683, -0.143683, 0.989624, 6.649687, -5.080418)" style="fill: rgb(0, 0, 0); fill-opacity: 1;"/></g></g><g id="shape-efe99920-a82e-80f2-8006-53d8cd5ad0f1"><g class="fills" id="fills-efe99920-a82e-80f2-8006-53d8cd5ad0f1"><path d="M55.000,1.000L67.500,13.500L68.000,5.500L65.000,1.500L55.000,1.000Z" style="fill: rgb(227, 33, 53); fill-opacity: 1;"/></g></g><g id="shape-efe99920-a82e-80f2-8006-53d8cd5ad0f2"><g class="fills" id="fills-efe99920-a82e-80f2-8006-53d8cd5ad0f2"><rect rx="6" ry="6" x="0" y="0" transform="matrix(1.000000, 0.000000, 0.000000, 1.000000, 0.000000, 0.000000)" width="68.99999999999989" height="69"/></g><g id="strokes-73f5e126-3ea0-802a-8006-5502a485c0cf-efe99920-a82e-80f2-8006-53d8cd5ad0f2" class="strokes"><g class="inner-stroke-shape" transform="matrix(1.000000, 0.000000, 0.000000, 1.000000, 0.000000, 0.000000)"><defs><clipPath id="inner-stroke-render-7-efe99920-a82e-80f2-8006-53d8cd5ad0f2-0"><use href="#stroke-shape-render-7-efe99920-a82e-80f2-8006-53d8cd5ad0f2-0"/></clipPath><rect rx="6" ry="6" x="0" y="0" width="68.99999999999989" height="69" id="stroke-shape-render-7-efe99920-a82e-80f2-8006-53d8cd5ad0f2-0" style="fill: none; stroke-width: 4; stroke: rgb(0, 0, 0); stroke-opacity: 1;"/></defs><use href="#stroke-shape-render-7-efe99920-a82e-80f2-8006-53d8cd5ad0f2-0" clip-path="url('#inner-stroke-render-7-efe99920-a82e-80f2-8006-53d8cd5ad0f2-0')"/></g></g></g><g id="shape-efe99920-a82e-80f2-8006-53d8cd5ad0f3"><g class="fills" id="fills-efe99920-a82e-80f2-8006-53d8cd5ad0f3"><path d="M54.000,1.000L68.000,15.000M42.000,-5.000"/></g><g id="strokes-73f5e126-3ea0-802a-8006-5502a4867541-efe99920-a82e-80f2-8006-53d8cd5ad0f3" class="strokes"><g class="stroke-shape"><path d="M54.000,1.000L68.000,15.000M42.000,-5.000" style="fill: none; stroke-width: 2; stroke: rgb(0, 0, 0); stroke-opacity: 1;"/></g></g></g></g></svg>